<?xml version="1.0" standalone="no"?>
<!DOCTYPE svg PUBLIC "-//W3C//DTD SVG 20010904//EN"
 "http://www.w3.org/TR/2001/REC-SVG-20010904/DTD/svg10.dtd">
<svg version="1.0" xmlns="http://www.w3.org/2000/svg"
 width="260.000000pt" height="260.000000pt" viewBox="0 0 260.000000 260.000000"
 preserveAspectRatio="xMidYMid meet">
<metadata>
Created by potrace 1.11, written by Peter Selinger 2001-2013
</metadata>
<g transform="translate(0.000000,260.000000) scale(0.100000,-0.100000)"
fill="#000000" stroke="none">
<path d="M2451 2563 c-8 -21 -44 -102 -81 -180 -240 -502 -603 -920 -1048
-1203 l-24 -15 -3 -583 -4 -583 22 3 22 3 3 343 2 342 26 0 25 0 -2 152 c-2
126 1 158 14 183 10 17 17 36 17 44 0 21 12 6 28 -37 10 -27 14 -78 12 -189
l-2 -151 24 -4 23 -3 0 -337 c0 -217 4 -339 10 -340 6 -2 12 98 15 277 l5 280
33 3 32 3 0 83 c0 45 -4 86 -10 92 -10 10 27 164 40 164 3 0 16 -34 28 -76 17
-56 20 -80 12 -89 -6 -8 -10 -46 -8 -91 l3 -79 30 -5 30 -5 -3 -278 c-3 -244
-1 -277 12 -277 14 0 16 51 18 427 l3 428 30 5 c26 4 30 10 33 43 2 21 -2 45
-8 52 -9 11 -8 26 8 67 12 29 24 62 28 73 5 17 8 15 16 -15 5 -19 16 -52 25
-73 12 -29 14 -40 5 -49 -15 -15 -16 -85 -1 -94 20 -12 27 17 27 122 1 84 -2
105 -14 112 -14 8 -11 27 26 158 23 82 43 150 45 152 3 3 32 -92 66 -216 20
-74 21 -84 7 -95 -14 -10 -15 -36 -11 -184 4 -102 10 -173 15 -173 6 0 8 14 4
33 -6 35 25 173 39 170 18 -4 46 -117 40 -160 -6 -41 -5 -43 19 -43 l26 0 0
-365 0 -365 115 0 115 0 2 513 c3 674 0 611 27 615 22 4 22 6 20 130 -2 118
13 232 31 232 17 0 33 -124 31 -238 -3 -116 -2 -122 17 -122 19 0 20 -9 27
-122 3 -68 5 -322 3 -566 -3 -415 -2 -442 15 -442 16 0 17 68 17 1290 l0 1290
-68 0 -68 0 -13 -37z m-118 -1218 l2 -190 -32 -3 c-41 -4 -39 -20 -26 221 3
55 0 93 -6 101 -8 9 -6 28 5 67 24 86 26 88 41 39 9 -31 14 -106 16 -235z
m-86 -71 c-3 -3 -12 -4 -19 -1 -8 3 -5 6 6 6 11 1 17 -2 13 -5z"/>
<path d="M1125 1071 c-60 -31 -148 -73 -195 -93 l-85 -35 -3 -471 c-2 -467 -2
-472 18 -472 19 0 20 6 20 186 l0 185 38 -3 37 -3 5 -185 6 -185 2 198 c2 190
3 199 22 204 18 5 20 14 20 94 0 53 -4 89 -10 89 -13 0 -13 33 -1 46 6 5 18
41 29 79 l19 70 17 -54 c9 -30 16 -59 16 -65 0 -5 8 -18 17 -28 14 -16 15 -23
5 -38 -7 -11 -12 -42 -12 -70 0 -43 3 -50 20 -50 19 0 20 -7 20 -132 0 -73 4
-128 8 -122 4 6 21 13 39 16 l32 4 3 -115 c3 -112 4 -116 26 -119 l22 -3 0
565 c0 447 -3 566 -12 565 -7 0 -62 -26 -123 -58z"/>
<path d="M761 915 c-18 -8 -41 -15 -50 -15 -9 -1 -34 -9 -56 -20 -22 -11 -46
-19 -52 -20 -10 0 -13 -93 -13 -430 0 -376 2 -430 15 -430 13 0 15 27 15 185
l0 185 26 0 c27 0 27 0 21 63 -4 47 -1 80 12 123 l18 59 14 -45 c7 -25 12 -79
11 -122 l-2 -77 27 -3 28 -3 3 -183 c2 -153 5 -182 17 -182 13 0 15 60 17 450
0 248 1 455 2 462 2 18 -16 19 -53 3z"/>
<path d="M450 817 c-52 -17 -97 -33 -100 -38 -3 -4 -4 -181 -2 -393 2 -333 5
-386 17 -386 13 0 15 33 15 219 l0 220 23 3 c20 3 22 8 23 73 1 39 7 84 14
100 l12 30 13 -43 c8 -26 11 -65 8 -98 -6 -53 -5 -54 21 -54 l26 0 0 -225 c0
-183 3 -225 14 -225 11 0 14 75 18 417 3 230 3 421 -1 424 -3 3 -49 -7 -101
-24z"/>
<path d="M224 763 l-61 -14 -8 -370 c-4 -204 -4 -373 -1 -376 14 -15 19 17 25
189 5 153 8 183 21 183 12 0 15 16 15 80 1 86 12 148 25 140 13 -8 23 -77 21
-146 -2 -59 0 -67 17 -72 20 -5 20 -10 15 -191 -5 -156 -4 -186 8 -186 12 0
14 62 14 390 0 341 -2 390 -15 389 -8 -1 -43 -8 -76 -16z"/>
<path d="M48 733 l-48 -4 0 -145 c0 -139 1 -144 21 -144 16 0 20 6 18 28 -3
35 11 102 21 102 12 0 22 -65 14 -94 -5 -21 -2 -27 17 -34 l23 -9 -3 -216 c-2
-150 1 -217 8 -217 8 0 11 112 11 370 0 346 -1 370 -17 368 -10 -1 -39 -3 -65
-5z"/>
<path d="M1967 493 c-4 -3 -7 -114 -7 -245 0 -202 2 -238 15 -238 17 0 22 116
17 353 -3 126 -7 149 -25 130z"/>
<path d="M1043 80 c0 -41 2 -58 4 -38 2 21 2 55 0 76 -2 20 -4 3 -4 -38z"/>
</g>
</svg>
